<?xml version="1.0" encoding="UTF-8"?>
<svg id="Layer_2" data-name="Layer 2" xmlns="http://www.w3.org/2000/svg" xmlns:xlink="http://www.w3.org/1999/xlink" viewBox="0 0 533.75 253.95">
  <defs>
    <style>
      .cls-1 {
        fill: #fff;
      }

      .cls-2 {
        fill: url(#linear-gradient);
      }
    </style>
    <linearGradient id="linear-gradient" x1="138.1" y1="36.1" x2="-162.51" y2="349.33" gradientUnits="userSpaceOnUse">
      <stop offset="0" stop-color="#bcb8af"/>
      <stop offset=".38" stop-color="#dbdbdb"/>
      <stop offset=".73" stop-color="#161616"/>
      <stop offset=".93" stop-color="#000"/>
    </linearGradient>
  </defs>
  <g id="Layer_1-2" data-name="Layer 1">
    <g>
      <path class="cls-2" d="M117.85,72.07L14.08,1.57C8.1-2.49,0,1.79,0,9.03v59.01c0,3.69,2.25,7.01,5.68,8.38l103.77,41.3c5.92,2.36,12.35-2.01,12.35-8.38v-29.81c0-2.99-1.48-5.78-3.95-7.46ZM112.91,181.85l-103.77-1.44c-5.03-.07-9.14,3.99-9.14,9.02v55.51c0,5.69,5.21,9.96,10.79,8.84l103.77-20.86c4.21-.85,7.24-4.54,7.24-8.84v-33.2c0-4.93-3.96-8.95-8.89-9.02ZM115.81,126.73L12.05,89.69c-5.87-2.1-12.05,2.26-12.05,8.49v58.71c0,4.71,3.63,8.63,8.33,8.99l103.77,7.96c5.24.4,9.71-3.74,9.71-8.99v-29.64c0-3.81-2.4-7.21-5.99-8.49Z"/>
      <path class="cls-1" d="M183.44,95.92c-4.03-2.11-8.83-3.16-14.4-3.16h-18.15c-3.07,0-5.57,2.49-5.57,5.57v71.3c0,3.07,2.49,5.57,5.57,5.57h18.15c5.57,0,10.37-1.05,14.4-3.16,4.03-2.11,7.17-5.08,9.43-8.92s3.39-8.36,3.39-13.55v-31.28c0-5.19-1.13-9.69-3.39-13.49-2.26-3.8-5.4-6.75-9.43-8.86ZM183.05,149.55c0,4.22-1.24,7.53-3.73,9.94-2.48,2.41-5.91,3.61-10.27,3.61h-10.5v-58.26h10.5c4.36,0,7.79,1.21,10.27,3.61,2.48,2.41,3.73,5.68,3.73,9.82v31.28ZM255.37,133.74c-1.86-.94-3.88-1.58-6.07-1.93,1.83-.37,3.53-.96,5.11-1.79,2.86-1.5,5.12-3.63,6.77-6.38,1.66-2.75,2.48-5.97,2.48-9.65,0-6.62-2.3-11.82-6.89-15.58-4.59-3.76-10.84-5.65-18.74-5.65h-20.7c-2.23,0-4.03,1.8-4.03,4.03v74.36c0,2.23,1.8,4.03,4.03,4.03h22.16c5.34,0,9.95-.94,13.83-2.82,3.88-1.88,6.87-4.59,8.98-8.13,2.11-3.54,3.16-7.68,3.16-12.42,0-4.29-.9-7.98-2.71-11.07-1.81-3.09-4.27-5.42-7.4-7ZM226.07,103.93h11.97c3.84,0,6.87,1.02,9.09,3.05,2.22,2.03,3.33,4.86,3.33,8.47s-1.11,6.34-3.33,8.41c-2.22,2.07-5.29,3.11-9.2,3.11h-11.86v-23.04ZM248.65,160.61c-2.48,2.26-5.83,3.39-10.05,3.39h-12.53v-26.2h12.53c4.21,0,7.56,1.22,10.05,3.67,2.48,2.45,3.73,5.7,3.73,9.77s-1.24,7.11-3.73,9.37ZM314.79,94.44c-.25-.99-1.14-1.69-2.17-1.69h-13.68c-1.02,0-1.92.69-2.17,1.69l-19.76,77.96c-.36,1.41.71,2.78,2.17,2.78h8.79c1.04,0,1.94-.72,2.18-1.73l4.34-18.71h22.58l4.45,18.72c.24,1.01,1.14,1.72,2.17,1.72h8.69c1.46,0,2.52-1.37,2.17-2.78l-19.76-77.96ZM296.86,143.9l5.42-23.03c.9-3.91,1.65-7.4,2.26-10.44.6-3.05,1.02-5.17,1.24-6.38.23,1.21.66,3.35,1.3,6.44.64,3.09,1.41,6.59,2.31,10.5l5.19,22.92h-17.73ZM381.04,158.58c1.84,1.88,2.77,4.4,2.77,7.57s-.92,5.55-2.77,7.4c-1.85,1.84-4.35,2.77-7.51,2.77s-5.67-.92-7.51-2.77c-1.85-1.84-2.77-4.31-2.77-7.4s.92-5.68,2.77-7.57c1.84-1.88,4.35-2.82,7.51-2.82s5.66.94,7.51,2.82ZM459.79,117.6c-4.37-3.76-10.31-5.65-17.84-5.65-6.93,0-12.67,1.69-17.22,5.08-3.98,2.96-6.47,6.8-7.5,11.54-.24,1.09.63,2.13,1.75,2.13h9.38c.78,0,1.46-.52,1.69-1.27.57-1.82,1.73-3.29,3.49-4.43,2.15-1.39,4.84-2.09,8.07-2.09,3.61,0,6.44.9,8.47,2.71,2.03,1.81,3.05,4.29,3.05,7.45v5.53h-16.37c-7.15,0-12.74,1.66-16.77,4.97-4.03,3.31-6.04,7.98-6.04,14s1.86,10.37,5.59,13.72c3.73,3.35,8.79,5.02,15.19,5.02,5.65,0,10.2-1.33,13.66-4.01,2.75-2.12,4.39-4.86,4.95-8.19h.13v9.28c0,.98.8,1.78,1.78,1.78h11.09v-42.23c0-6.47-2.18-11.59-6.55-15.36ZM449.12,163.16c-2.67,2.15-6.08,3.22-10.22,3.22-3.69,0-6.59-.88-8.69-2.65-2.11-1.77-3.16-4.2-3.16-7.28,0-2.86.9-5.14,2.71-6.83,1.81-1.69,4.21-2.54,7.23-2.54h16.15v7.9c0,3.31-1.34,6.04-4.01,8.19ZM532.15,163.55c.89,0,1.6.72,1.6,1.6v8.42c0,.89-.72,1.6-1.6,1.6h-46.25c-.89,0-1.6-.72-1.6-1.6v-9.99c0-.38.14-.76.39-1.05l32.58-37.83h-30.35c-.89,0-1.6-.72-1.6-1.6v-8.42c0-.89.72-1.6,1.6-1.6h43.99c.89,0,1.6.72,1.6,1.6v9.99c0,.39-.14.76-.4,1.06l-33.03,37.82h33.06Z"/>
      <g>
        <path class="cls-1" d="M147.56,214.38v-20.55h5.91c1.39,0,2.58.26,3.59.79,1,.53,1.79,1.26,2.35,2.21.56.95.84,2.07.84,3.36v7.8c0,1.29-.28,2.42-.84,3.38s-1.35,1.7-2.35,2.22c-1,.53-2.2.79-3.59.79h-5.91ZM150.85,211.37h2.62c1.09,0,1.94-.3,2.56-.9.62-.6.93-1.43.93-2.48v-7.8c0-1.03-.31-1.85-.93-2.45-.62-.6-1.47-.9-2.56-.9h-2.62v14.52Z"/>
        <path class="cls-1" d="M169.03,214.66c-1.6,0-2.86-.42-3.79-1.25-.93-.83-1.39-1.97-1.39-3.42s.5-2.66,1.51-3.49,2.4-1.24,4.18-1.24h4.08v-1.38c0-.79-.25-1.41-.76-1.86-.51-.45-1.21-.68-2.11-.68-.81,0-1.48.17-2.01.52-.54.35-.85.82-.94,1.42h-3.21c.17-1.43.82-2.56,1.96-3.41s2.57-1.27,4.29-1.27c1.88,0,3.36.47,4.45,1.41,1.09.94,1.63,2.21,1.63,3.83v10.53h-3.21v-2.76h-.53l.56-.68c0,1.15-.43,2.05-1.29,2.72-.86.67-2,1-3.41,1ZM170.07,212.18c1.03,0,1.88-.27,2.55-.8.67-.53,1-1.21,1-2.04v-1.97h-4.02c-.75,0-1.35.21-1.8.63-.45.42-.68.99-.68,1.7,0,.77.26,1.38.79,1.82.53.44,1.25.66,2.17.66Z"/>
        <path class="cls-1" d="M189.24,214.38c-1.45,0-2.57-.4-3.38-1.2-.81-.8-1.21-1.9-1.21-3.31v-8.02h-4.25v-2.96h4.25v-4.36h3.27v4.36h6.02v2.96h-6.02v8.02c0,1.03.51,1.55,1.52,1.55h4.22v2.96h-4.42Z"/>
        <path class="cls-1" d="M202.81,214.66c-1.6,0-2.86-.42-3.79-1.25-.93-.83-1.39-1.97-1.39-3.42s.5-2.66,1.51-3.49,2.4-1.24,4.18-1.24h4.08v-1.38c0-.79-.25-1.41-.76-1.86-.51-.45-1.21-.68-2.11-.68-.81,0-1.48.17-2.01.52-.54.35-.85.82-.94,1.42h-3.21c.17-1.43.82-2.56,1.96-3.41s2.57-1.27,4.29-1.27c1.88,0,3.36.47,4.45,1.41,1.09.94,1.63,2.21,1.63,3.83v10.53h-3.21v-2.76h-.53l.56-.68c0,1.15-.43,2.05-1.29,2.72-.86.67-2,1-3.41,1ZM203.85,212.18c1.03,0,1.88-.27,2.55-.8.67-.53,1-1.21,1-2.04v-1.97h-4.02c-.75,0-1.35.21-1.8.63-.45.42-.68.99-.68,1.7,0,.77.26,1.38.79,1.82.53.44,1.25.66,2.17.66Z"/>
        <path class="cls-1" d="M222.54,214.66c-1.28,0-2.29-.36-3.04-1.07-.75-.71-1.13-1.69-1.13-2.93l.7.76h-.7v2.96h-3.24v-20.55h3.29v4.39l-.08,3.63h.73l-.7.76c0-1.24.38-2.21,1.14-2.93.76-.71,1.77-1.07,3.03-1.07,1.56,0,2.81.53,3.74,1.59.94,1.06,1.41,2.49,1.41,4.29v4.28c0,1.8-.47,3.23-1.41,4.29-.94,1.06-2.19,1.59-3.74,1.59ZM221.39,211.82c.96,0,1.7-.28,2.24-.83.54-.55.8-1.34.8-2.35v-4c0-1.01-.27-1.8-.8-2.35-.53-.55-1.28-.83-2.24-.83-.9,0-1.62.28-2.15.84-.53.56-.8,1.34-.8,2.34v4c0,.99.27,1.77.8,2.34s1.25.84,2.15.84Z"/>
        <path class="cls-1" d="M236.58,214.66c-1.6,0-2.86-.42-3.79-1.25-.93-.83-1.39-1.97-1.39-3.42s.5-2.66,1.51-3.49,2.4-1.24,4.18-1.24h4.08v-1.38c0-.79-.25-1.41-.76-1.86-.51-.45-1.21-.68-2.11-.68-.81,0-1.48.17-2.01.52-.54.35-.85.82-.94,1.42h-3.21c.17-1.43.82-2.56,1.96-3.41s2.57-1.27,4.29-1.27c1.88,0,3.36.47,4.45,1.41,1.09.94,1.63,2.21,1.63,3.83v10.53h-3.21v-2.76h-.53l.56-.68c0,1.15-.43,2.05-1.29,2.72-.86.67-2,1-3.41,1ZM237.63,212.18c1.03,0,1.88-.27,2.55-.8.67-.53,1-1.21,1-2.04v-1.97h-4.02c-.75,0-1.35.21-1.8.63-.45.42-.68.99-.68,1.7,0,.77.26,1.38.79,1.82.53.44,1.25.66,2.17.66Z"/>
        <path class="cls-1" d="M254.54,214.63c-1.14,0-2.14-.18-3-.55-.85-.37-1.53-.87-2.03-1.52-.5-.65-.77-1.41-.83-2.29h3.29c.06.51.31.91.77,1.21.46.3,1.06.45,1.79.45h1.21c.9,0,1.58-.18,2.03-.53.45-.36.68-.83.68-1.44,0-.56-.2-1.01-.6-1.34-.4-.33-1.01-.55-1.82-.66l-1.97-.28c-1.71-.26-2.96-.74-3.76-1.42-.8-.69-1.2-1.71-1.2-3.08,0-1.44.47-2.56,1.42-3.35.95-.79,2.35-1.18,4.21-1.18h1.07c1.67,0,3,.38,4,1.13.99.75,1.55,1.76,1.66,3.04h-3.29c-.06-.43-.29-.78-.7-1.06s-.97-.41-1.66-.41h-1.07c-.84,0-1.46.15-1.84.46-.38.31-.58.76-.58,1.37,0,.54.17.95.51,1.22.34.27.87.46,1.6.58l2.03.28c1.78.26,3.1.76,3.94,1.48.84.72,1.27,1.78,1.27,3.17,0,1.5-.49,2.66-1.48,3.49-.98.83-2.46,1.24-4.43,1.24h-1.21Z"/>
        <path class="cls-1" d="M271.99,214.66c-1.28,0-2.39-.25-3.35-.75s-1.7-1.2-2.22-2.11c-.53-.91-.79-1.97-.79-3.17v-4c0-1.2.26-2.26.79-3.17.52-.91,1.27-1.61,2.22-2.11s2.07-.75,3.35-.75,2.42.25,3.36.75c.95.5,1.68,1.2,2.21,2.11.52.91.79,1.97.79,3.17v2.79h-9.57v1.21c0,1.11.28,1.95.83,2.53.55.58,1.36.87,2.41.87.84,0,1.52-.15,2.04-.45.52-.3.84-.72.97-1.27h3.24c-.24,1.31-.94,2.36-2.08,3.15s-2.54,1.18-4.19,1.18ZM275.2,205.51v-.87c0-1.11-.27-1.96-.8-2.55-.53-.59-1.34-.89-2.41-.89s-1.83.3-2.38.9c-.55.6-.83,1.45-.83,2.53v.65l6.64-.03-.23.25Z"/>
        <path class="cls-1" d="M298.42,214.38l5.21-20.55h4.28l5.21,20.55h-3.32l-1.21-5.09h-5.63l-1.18,5.09h-3.35ZM303.54,206.58h4.42l-1.29-5.71c-.23-.98-.42-1.85-.58-2.62-.16-.77-.27-1.3-.32-1.6-.06.3-.16.83-.31,1.59-.15.76-.34,1.63-.56,2.6l-1.35,5.74Z"/>
        <path class="cls-1" d="M321.45,214.66c-1.56,0-2.81-.53-3.74-1.59-.94-1.06-1.41-2.49-1.41-4.29v-4.28c0-1.8.47-3.23,1.41-4.29.94-1.06,2.19-1.59,3.74-1.59,1.28,0,2.29.36,3.04,1.07.75.71,1.13,1.69,1.13,2.93l-.7-.76h.73l-.08-3.63v-4.39h3.29v20.55h-3.24v-2.96h-.7l.7-.76c0,1.24-.38,2.21-1.13,2.93-.75.71-1.76,1.07-3.04,1.07ZM322.6,211.82c.92,0,1.64-.28,2.17-.84.52-.56.79-1.34.79-2.34v-4c0-.99-.26-1.77-.79-2.34-.53-.56-1.25-.84-2.17-.84s-1.7.28-2.24.83c-.53.55-.8,1.34-.8,2.35v4c0,1.01.27,1.8.8,2.35.54.55,1.28.83,2.24.83Z"/>
        <path class="cls-1" d="M332.65,214.38v-15.48h2.73v2.03h.56l-.45.56c0-.88.24-1.58.72-2.1.48-.52,1.1-.77,1.87-.77.84,0,1.5.33,1.96,1,.46.67.69,1.57.69,2.72l-.65-1.41h1.01l-.42.56c0-.88.24-1.58.73-2.1.49-.52,1.14-.77,1.94-.77.96,0,1.71.36,2.27,1.08.55.72.83,1.68.83,2.89v11.79h-2.9v-11.68c0-.54-.12-.97-.35-1.27-.23-.3-.58-.45-1.03-.45s-.8.15-1.04.44-.37.71-.37,1.25v11.71h-2.42v-11.68c0-.56-.12-.99-.37-1.28-.24-.29-.59-.44-1.04-.44s-.79.15-1.01.44-.34.71-.34,1.25v11.71h-2.93Z"/>
        <path class="cls-1" d="M350.18,214.38v-2.98h5.43v-9.54h-4.73v-2.96h7.88v12.5h4.9v2.98h-13.48ZM356.91,196.25c-.69,0-1.24-.17-1.63-.52s-.59-.82-.59-1.42.2-1.11.59-1.46c.39-.36.94-.53,1.63-.53s1.24.18,1.63.53c.39.36.59.84.59,1.46s-.2,1.07-.59,1.42-.94.52-1.63.52Z"/>
        <path class="cls-1" d="M367.13,214.38v-15.48h3.24v2.96h.84l-.84.76c0-1.26.37-2.24,1.11-2.94.74-.7,1.75-1.06,3.03-1.06,1.54,0,2.77.5,3.69,1.49.92,1,1.38,2.35,1.38,4.05v10.22h-3.29v-9.88c0-.98-.26-1.73-.77-2.25-.52-.52-1.22-.79-2.12-.79s-1.64.28-2.17.83c-.53.55-.79,1.34-.79,2.35v9.74h-3.29Z"/>
        <path class="cls-1" d="M383.96,214.38v-2.98h5.43v-9.54h-4.73v-2.96h7.88v12.5h4.9v2.98h-13.48ZM390.68,196.25c-.69,0-1.24-.17-1.63-.52s-.59-.82-.59-1.42.2-1.11.59-1.46c.39-.36.94-.53,1.63-.53s1.24.18,1.63.53c.39.36.59.84.59,1.46s-.2,1.07-.59,1.42-.94.52-1.63.52Z"/>
        <path class="cls-1" d="M406.53,214.63c-1.14,0-2.14-.18-3-.55-.85-.37-1.53-.87-2.03-1.52s-.77-1.41-.83-2.29h3.29c.06.51.31.91.77,1.21s1.06.45,1.79.45h1.21c.9,0,1.58-.18,2.03-.53s.67-.83.67-1.44c0-.56-.2-1.01-.6-1.34-.4-.33-1.01-.55-1.82-.66l-1.97-.28c-1.71-.26-2.96-.74-3.76-1.42-.8-.69-1.2-1.71-1.2-3.08,0-1.44.47-2.56,1.42-3.35s2.35-1.18,4.21-1.18h1.07c1.67,0,3,.38,4,1.13.99.75,1.55,1.76,1.66,3.04h-3.29c-.06-.43-.29-.78-.7-1.06-.41-.27-.97-.41-1.66-.41h-1.07c-.84,0-1.46.15-1.84.46s-.58.76-.58,1.37c0,.54.17.95.51,1.22.34.27.87.46,1.6.58l2.03.28c1.78.26,3.1.76,3.94,1.48.84.72,1.27,1.78,1.27,3.17,0,1.5-.49,2.66-1.48,3.49-.99.83-2.46,1.24-4.43,1.24h-1.21Z"/>
        <path class="cls-1" d="M425.67,214.38c-1.45,0-2.57-.4-3.38-1.2-.81-.8-1.21-1.9-1.21-3.31v-8.02h-4.25v-2.96h4.25v-4.36h3.26v4.36h6.02v2.96h-6.02v8.02c0,1.03.51,1.55,1.52,1.55h4.22v2.96h-4.42Z"/>
        <path class="cls-1" d="M435.18,214.38v-15.48h3.12v2.96h.82l-.99,1.83c0-1.67.37-2.93,1.11-3.79.74-.85,1.83-1.28,3.28-1.28,1.67,0,2.98.51,3.94,1.53.96,1.02,1.44,2.44,1.44,4.26v1.07h-3.41v-.84c0-1.05-.27-1.86-.8-2.42-.53-.56-1.27-.84-2.21-.84s-1.7.29-2.22.86c-.53.57-.79,1.38-.79,2.41v9.74h-3.29Z"/>
        <path class="cls-1" d="M456.12,214.66c-1.59,0-2.86-.42-3.79-1.25-.93-.83-1.39-1.97-1.39-3.42s.5-2.66,1.51-3.49c1-.83,2.4-1.24,4.18-1.24h4.08v-1.38c0-.79-.25-1.41-.76-1.86s-1.21-.68-2.11-.68c-.81,0-1.48.17-2.01.52-.53.35-.85.82-.94,1.42h-3.21c.17-1.43.82-2.56,1.96-3.41s2.57-1.27,4.29-1.27c1.88,0,3.36.47,4.45,1.41,1.09.94,1.63,2.21,1.63,3.83v10.53h-3.21v-2.76h-.53l.56-.68c0,1.15-.43,2.05-1.29,2.72-.86.67-2,1-3.41,1ZM457.17,212.18c1.03,0,1.88-.27,2.55-.8s1-1.21,1-2.04v-1.97h-4.03c-.75,0-1.35.21-1.8.63-.45.42-.68.99-.68,1.7,0,.77.26,1.38.79,1.82.53.44,1.25.66,2.17.66Z"/>
        <path class="cls-1" d="M476.33,214.38c-1.45,0-2.57-.4-3.38-1.2-.81-.8-1.21-1.9-1.21-3.31v-8.02h-4.25v-2.96h4.25v-4.36h3.26v4.36h6.02v2.96h-6.02v8.02c0,1.03.51,1.55,1.52,1.55h4.22v2.96h-4.42Z"/>
        <path class="cls-1" d="M485.28,214.38v-2.98h5.43v-9.54h-4.73v-2.96h7.88v12.5h4.9v2.98h-13.48ZM492.01,196.25c-.69,0-1.24-.17-1.63-.52-.39-.35-.59-.82-.59-1.42s.2-1.11.59-1.46c.39-.36.94-.53,1.63-.53s1.24.18,1.63.53c.39.36.59.84.59,1.46s-.2,1.07-.59,1.42c-.39.35-.94.52-1.63.52Z"/>
        <path class="cls-1" d="M508.42,214.63c-1.29,0-2.42-.24-3.36-.73s-1.68-1.19-2.21-2.1-.79-1.98-.79-3.22v-3.88c0-1.24.26-2.31.79-3.22.53-.91,1.26-1.61,2.21-2.1s2.07-.73,3.36-.73,2.44.24,3.38.73,1.67,1.19,2.2,2.1c.53.91.79,1.98.79,3.19v3.91c0,1.24-.26,2.31-.79,3.22s-1.26,1.61-2.2,2.1-2.06.73-3.38.73ZM508.42,211.76c.98,0,1.74-.27,2.28-.82.54-.54.82-1.33.82-2.36v-3.88c0-1.05-.27-1.84-.82-2.38-.54-.53-1.3-.8-2.28-.8s-1.71.27-2.27.8c-.55.54-.83,1.33-.83,2.38v3.88c0,1.03.28,1.82.83,2.36.55.54,1.31.82,2.27.82Z"/>
        <path class="cls-1" d="M519.12,214.38v-15.48h3.24v2.96h.84l-.84.76c0-1.26.37-2.24,1.11-2.94s1.75-1.06,3.03-1.06c1.54,0,2.77.5,3.69,1.49.92,1,1.38,2.35,1.38,4.05v10.22h-3.29v-9.88c0-.98-.26-1.73-.77-2.25-.52-.52-1.22-.79-2.12-.79s-1.64.28-2.17.83c-.53.55-.79,1.34-.79,2.35v9.74h-3.29Z"/>
      </g>
    </g>
  </g>
</svg>