<svg width="102" height="102" viewBox="0 0 102 102" fill="none" xmlns="http://www.w3.org/2000/svg">
<circle cx="51" cy="51" r="51" fill="#313131"/>
<path d="M51.002 38.4502C63.5253 38.4502 77.0039 35.738 77.0039 29.7829C77.0039 23.8277 63.5253 21 51.002 21C38.4786 21 25 23.8277 25 29.7829C25 35.738 38.4786 38.4502 51.002 38.4502Z" fill="#F0F0F0"/>
<path d="M51.002 41.9171C43.832 41.9171 30.5497 40.7629 25.0696 36.1967C25.0348 36.1967 25.0348 36.162 25 36.162C25 43.1514 38.6484 44.748 45.8016 45.2107V48.6777C39.5611 48.2963 30.0617 47.048 25 43.1652V43.6506C25 50.5149 42.0226 52.3179 51.002 52.3179C59.9813 52.3179 77.0039 50.5149 77.0039 43.6506V36.162C70.4803 40.8255 58.9709 41.9171 51.002 41.9171ZM52.7354 48.851H49.2685V45.3841H52.7354V48.851Z" fill="#F0F0F0"/>
<path d="M51.002 55.7848C43.8545 55.7848 30.4789 54.6061 25.0696 50.0991C25.0348 50.0991 25.0348 50.0644 25 50.0644C25 57.0082 38.7652 58.6234 45.8016 59.0784V62.5453C39.5611 62.164 30.0617 60.9156 25 57.0329C25 64.9032 43.3833 66.1856 51.002 66.1856C59.9813 66.1856 77.0039 64.3826 77.0039 57.5183V50.0644C70.512 54.7 58.8044 55.7848 51.002 55.7848ZM52.7354 62.7187H49.2685V59.2517H52.7354V62.7187Z" fill="#F0F0F0"/>
<path d="M25.0696 63.9668C25.0348 63.9668 25.0348 63.9321 25 63.9321C25 70.8759 38.7652 72.4912 45.8016 72.9461V76.4131C39.5611 76.0317 30.0617 74.7834 25 70.9007C25 78.7809 43.1945 80.1689 51.002 80.1689C63.5176 80.1689 77.0039 77.3489 77.0039 71.386V63.9321C70.0701 69.3059 54.7809 69.6526 51.002 69.6526C47.223 69.6526 32.0381 69.3059 25.0696 63.9668ZM52.7354 76.5864H49.2685V73.1195H52.7354V76.5864Z" fill="#F0F0F0"/>
</svg>
