<svg width="52" height="60" viewBox="0 0 52 60" fill="none" xmlns="http://www.w3.org/2000/svg">
<path d="M26.002 17.4502C38.5253 17.4502 52.0039 14.738 52.0039 8.78288C52.0039 2.82774 38.5253 0 26.002 0C13.4786 0 0 2.82774 0 8.78288C0 14.738 13.4786 17.4502 26.002 17.4502Z" fill="#313131"/>
<path d="M26.002 20.9171C18.832 20.9171 5.54974 19.7629 0.0695697 15.1967C0.0347848 15.1967 0.0347848 15.162 0 15.162C0 22.1514 13.6484 23.748 20.8016 24.2107V27.6777C14.5611 27.2963 5.06171 26.048 0 22.1652V22.6506C0 29.5149 17.0226 31.3179 26.002 31.3179C34.9813 31.3179 52.0039 29.5149 52.0039 22.6506V15.162C45.4803 19.8255 33.9709 20.9171 26.002 20.9171ZM27.7354 27.851H24.2685V24.3841H27.7354V27.851Z" fill="#313131"/>
<path d="M26.002 34.7848C18.8545 34.7848 5.4789 33.6061 0.0695697 29.0991C0.0347848 29.0991 0.0347848 29.0644 0 29.0644C0 36.0082 13.7652 37.6234 20.8016 38.0784V41.5453C14.5611 41.164 5.06171 39.9156 0 36.0329C0 43.9032 18.3833 45.1856 26.002 45.1856C34.9813 45.1856 52.0039 43.3826 52.0039 36.5183V29.0644C45.512 33.7 33.8044 34.7848 26.002 34.7848ZM27.7354 41.7187H24.2685V38.2517H27.7354V41.7187Z" fill="#313131"/>
<path d="M0.0695697 42.9668C0.0347848 42.9668 0.0347848 42.9321 0 42.9321C0 49.8759 13.7652 51.4912 20.8016 51.9461V55.4131C14.5611 55.0317 5.06171 53.7834 0 49.9007C0 57.7809 18.1945 59.1689 26.002 59.1689C38.5176 59.1689 52.0039 56.3489 52.0039 50.386V42.9321C45.0701 48.3059 29.7809 48.6526 26.002 48.6526C22.223 48.6526 7.03809 48.3059 0.0695697 42.9668ZM27.7354 55.5864H24.2685V52.1195H27.7354V55.5864Z" fill="#313131"/>
</svg>
